# xmcd
#
# Track frame offsets: 
#        150
#        16051
#        31762
#        47808
#        60984
#        76930
#        88931
#        103848
#        119782
#        135432
#        151678
#
# Disc length: 2241 seconds
#
# Revision: 3
# Processed by: cddbd v1.5.2PL0 Copyright (c) Steve Scherf et al.
# Submitted via: ExactAudioCopyFreeDBPlugin 1.0
#
DISCID=7f08bf0b
DTITLE=Rodney Atkins - It's America
DYEAR=2009
DGENRE=Country
TTITLE0=Tell A Country Boy
TTITLE1=Chasin' Girls
TTITLE2=Got It Good
TTITLE3=Best Things
TTITLE4=Friends With Tractors
TTITLE5=15 Minutes
TTITLE6=Simple Things
TTITLE7=It's America
TTITLE8=Rockin' Of The Cradle
TTITLE9=When It's My Time
TTITLE10=The River Just Knows
EXTD=YEAR: 2009
EXTT0=
EXTT1=
EXTT2=
EXTT3=
EXTT4=
EXTT5=
EXTT6=
EXTT7=
EXTT8=
EXTT9=
EXTT10=
PLAYORDER=
